<svg xmlns="http://www.w3.org/2000/svg" xmlns:xlink="http://www.w3.org/1999/xlink" width="500" zoomAndPan="magnify" viewBox="0 0 375 374.999991" height="500" preserveAspectRatio="xMidYMid meet" version="1.0"><defs><g/></defs><g fill="#000000" fill-opacity="1"><g transform="translate(9.542174, 296.994508)"><g><path d="M 0 -243.6875 L 92.59375 -243.6875 L 92.59375 -239.671875 C 81.445312 -239.671875 73.925781 -238.664062 70.03125 -236.65625 C 66.132812 -234.65625 65.96875 -229.867188 69.53125 -222.296875 L 154.765625 -46.125 L 183.859375 -129.359375 L 140.0625 -219.625 C 136.5 -227.425781 132.878906 -232.660156 129.203125 -235.328125 C 125.523438 -238.003906 119.117188 -239.34375 109.984375 -239.34375 L 109.984375 -243.6875 L 250.703125 -243.6875 L 250.703125 -239.34375 C 241.347656 -239.34375 234.609375 -238.003906 230.484375 -235.328125 C 226.359375 -232.660156 222.847656 -227.3125 219.953125 -219.28125 L 203.578125 -172.828125 L 264.75 -46.125 L 325.59375 -219.625 C 328.039062 -226.75 328.035156 -231.816406 325.578125 -234.828125 C 323.128906 -237.835938 316.671875 -239.34375 306.203125 -239.34375 L 306.203125 -243.6875 L 361.03125 -243.6875 L 361.03125 -239.34375 C 351.445312 -239.34375 344.59375 -238.003906 340.46875 -235.328125 C 336.34375 -232.660156 332.832031 -227.3125 329.9375 -219.28125 L 253.390625 0 L 246.359375 0 L 186.53125 -123.6875 L 143.078125 0 L 136.046875 0 L 30.078125 -219.625 C 27.628906 -224.96875 25.234375 -229.03125 22.890625 -231.8125 C 20.554688 -234.601562 17.660156 -236.554688 14.203125 -237.671875 C 10.753906 -238.785156 6.019531 -239.34375 0 -239.34375 Z M 200.90625 -178.171875 L 215.609375 -219.625 C 218.054688 -226.75 218.054688 -231.816406 215.609375 -234.828125 C 213.160156 -237.835938 206.695312 -239.34375 196.21875 -239.34375 C 187.53125 -239.125 181.789062 -237.898438 179 -235.671875 C 176.21875 -233.441406 176.5 -228.984375 179.84375 -222.296875 Z M 200.90625 -178.171875 "/></g></g></g><path stroke-linecap="butt" transform="matrix(2.116889, 0, 0, 2.116889, -49.92364, -34.368239)" fill="none" stroke-linejoin="miter" d="M 36.860277 155.000222 L 36.860277 106.286708 L 38.960204 106.286708 C 38.960204 117.12034 40.532382 125.973987 43.676737 132.84396 C 46.821092 139.713933 51.089222 144.773687 56.479281 148.023223 C 61.897019 151.274604 67.908938 152.89845 74.515036 152.89845 C 78.635543 152.89845 82.401757 152.278436 85.809987 151.036563 C 89.220062 149.794691 91.941848 147.733514 93.975345 144.853034 C 96.036522 141.972554 97.068033 138.154672 97.068033 133.397544 C 97.068033 128.852622 95.62687 124.691518 92.74639 120.912388 C 89.893589 117.107423 86.167971 113.474069 81.569536 110.012326 C 76.971102 106.550583 72.123554 103.116519 67.023204 99.708289 C 61.948687 96.298214 57.114057 92.757124 52.515622 89.085019 C 47.919033 85.411069 44.178653 81.40866 41.298173 77.075945 C 38.445372 72.741385 37.018971 67.97134 37.018971 62.765808 C 37.018971 56.504778 38.722163 51.32508 42.132239 47.228561 C 45.540468 43.106208 49.834432 40.015367 55.012284 37.95419 C 60.219661 35.893014 65.47686 34.863348 70.787573 34.863348 C 74.909925 34.863348 78.399347 35.273 81.252148 36.090459 C 84.132629 36.883928 86.59054 37.849009 88.624037 38.983856 C 90.685213 40.120547 92.548945 41.098545 94.213386 41.917849 C 95.903662 42.737153 97.569948 43.146805 99.206711 43.146805 C 101.374913 43.146805 102.827148 42.657806 103.567104 41.679808 C 104.33474 40.70181 104.716713 39.024452 104.716713 36.645888 L 106.818486 36.645888 L 106.818486 74.974173 L 104.716713 74.974173 C 104.716713 67.707465 103.329063 61.352325 100.55561 55.908753 C 97.807989 50.439346 94.054692 46.185979 89.299409 43.146805 C 84.54228 40.10763 79.124542 38.588966 73.048039 38.588966 C 66.547122 38.588966 61.884102 40.133464 59.05529 43.226152 C 56.256002 46.316994 54.855436 50.241901 54.855436 54.997185 C 54.855436 60.309742 56.256002 64.998596 59.05529 69.069281 C 61.884102 73.112286 65.517456 76.784391 69.955352 80.08744 C 74.395092 83.390489 79.098708 86.614191 84.066198 89.758546 C 89.061368 92.877067 93.777901 96.193033 98.215796 99.708289 C 102.655537 103.2217 106.275974 107.146608 109.077107 111.479322 C 111.904074 115.813882 113.317557 120.899471 113.317557 126.739778 C 113.317557 132.262697 112.208545 137.296618 109.988675 141.841539 C 107.768804 146.386461 104.056103 150.045649 98.850572 152.819103 C 93.670874 155.568568 86.483514 156.941455 77.28849 156.941455 C 72.848749 156.941455 69.110214 156.559483 66.07104 155.791847 C 63.033711 155.053735 60.404189 154.168001 58.184319 153.136491 C 55.964448 152.106825 53.929106 151.221091 52.080136 150.481134 C 50.257001 149.715344 48.367436 149.331526 46.41144 149.331526 C 41.44395 149.331526 38.960204 151.221091 38.960204 155.000222 Z M 36.860277 155.000222 " stroke="#ffffff" stroke-width="16.641142" stroke-opacity="1" stroke-miterlimit="4"/><g fill="#000000" fill-opacity="1"><g transform="translate(10.903837, 293.74953)"><g><path d="M 17.1875 0 L 17.1875 -103.09375 L 21.65625 -103.09375 C 21.65625 -80.1875 24.972656 -61.457031 31.609375 -46.90625 C 38.253906 -32.363281 47.304688 -21.65625 58.765625 -14.78125 C 70.222656 -7.90625 82.941406 -4.46875 96.921875 -4.46875 C 105.617188 -4.46875 113.578125 -5.785156 120.796875 -8.421875 C 128.015625 -11.054688 133.800781 -15.410156 138.15625 -21.484375 C 142.507812 -27.554688 144.6875 -35.628906 144.6875 -45.703125 C 144.6875 -55.328125 141.648438 -64.148438 135.578125 -72.171875 C 129.503906 -80.191406 121.597656 -87.863281 111.859375 -95.1875 C 102.128906 -102.519531 91.878906 -109.796875 81.109375 -117.015625 C 70.335938 -124.234375 60.082031 -131.738281 50.34375 -139.53125 C 40.601562 -147.320312 32.695312 -155.796875 26.625 -164.953125 C 20.5625 -174.117188 17.53125 -184.203125 17.53125 -195.203125 C 17.53125 -208.492188 21.132812 -219.488281 28.34375 -228.1875 C 35.5625 -236.894531 44.671875 -243.425781 55.671875 -247.78125 C 66.671875 -252.132812 77.785156 -254.3125 89.015625 -254.3125 C 97.722656 -254.3125 105.109375 -253.453125 111.171875 -251.734375 C 117.242188 -250.015625 122.457031 -247.953125 126.8125 -245.546875 C 131.164062 -243.140625 135.117188 -241.078125 138.671875 -239.359375 C 142.222656 -237.648438 145.71875 -236.796875 149.15625 -236.796875 C 153.738281 -236.796875 156.832031 -237.820312 158.4375 -239.875 C 160.039062 -241.9375 160.84375 -245.488281 160.84375 -250.53125 L 165.3125 -250.53125 L 165.3125 -169.4375 L 160.84375 -169.4375 C 160.84375 -184.78125 157.921875 -198.238281 152.078125 -209.8125 C 146.234375 -221.382812 138.269531 -230.375 128.1875 -236.78125 C 118.101562 -243.195312 106.648438 -246.40625 93.828125 -246.40625 C 80.078125 -246.40625 70.222656 -243.140625 64.265625 -236.609375 C 58.304688 -230.085938 55.328125 -221.785156 55.328125 -211.703125 C 55.328125 -200.472656 58.304688 -190.5625 64.265625 -181.96875 C 70.222656 -173.382812 77.898438 -165.597656 87.296875 -158.609375 C 96.691406 -151.617188 106.65625 -144.800781 117.1875 -138.15625 C 127.726562 -131.507812 137.695312 -124.460938 147.09375 -117.015625 C 156.488281 -109.566406 164.160156 -101.257812 170.109375 -92.09375 C 176.066406 -82.9375 179.046875 -72.171875 179.046875 -59.796875 C 179.046875 -48.109375 176.695312 -37.453125 172 -27.828125 C 167.3125 -18.210938 159.46875 -10.484375 148.46875 -4.640625 C 137.46875 1.203125 122.234375 4.125 102.765625 4.125 C 93.367188 4.125 85.460938 3.320312 79.046875 1.71875 C 72.628906 0.113281 67.070312 -1.773438 62.375 -3.953125 C 57.675781 -6.128906 53.378906 -8.019531 49.484375 -9.625 C 45.585938 -11.226562 41.578125 -12.03125 37.453125 -12.03125 C 26.921875 -12.03125 21.65625 -8.019531 21.65625 0 Z M 17.1875 0 "/></g></g></g><g fill="#000000" fill-opacity="1"><g transform="translate(29.870785, 341.968606)"><g><path d="M 9.125 -11.09375 C 4.332031 -12.195312 1.9375 -14.25 1.9375 -17.25 C 1.9375 -19.457031 2.707031 -21.113281 4.25 -22.21875 C 5.789062 -23.300781 7.597656 -23.84375 9.671875 -23.84375 C 14.265625 -23.84375 16.984375 -22.140625 17.828125 -18.734375 L 15.203125 -18.734375 C 14.742188 -20.765625 12.898438 -21.78125 9.671875 -21.78125 C 7.421875 -21.78125 5.84375 -21.109375 4.9375 -19.765625 C 4.59375 -19.265625 4.421875 -18.632812 4.421875 -17.875 C 4.421875 -16.414062 5.207031 -15.296875 6.78125 -14.515625 C 7.507812 -14.117188 9.070312 -13.613281 11.46875 -13 C 13.863281 -12.375 15.601562 -11.679688 16.6875 -10.921875 C 18.1875 -9.859375 18.9375 -8.375 18.9375 -6.46875 C 18.9375 -4.09375 18.003906 -2.296875 16.140625 -1.078125 C 14.578125 -0.0546875 12.640625 0.453125 10.328125 0.453125 C 5.117188 0.453125 2.101562 -1.53125 1.28125 -5.5 L 4.140625 -5.5 C 4.578125 -3.007812 6.640625 -1.765625 10.328125 -1.765625 C 12.960938 -1.765625 14.796875 -2.488281 15.828125 -3.9375 C 16.242188 -4.507812 16.453125 -5.296875 16.453125 -6.296875 C 16.453125 -7.253906 16.070312 -8.046875 15.3125 -8.671875 C 14.226562 -9.546875 12.164062 -10.351562 9.125 -11.09375 Z M 9.125 -11.09375 "/></g></g></g><g fill="#000000" fill-opacity="1"><g transform="translate(59.692017, 341.968606)"><g><path d="M 5.015625 -11.640625 L 10.46875 -11.640625 C 11.832031 -11.640625 12.953125 -12.101562 13.828125 -13.03125 C 14.722656 -13.945312 15.171875 -15.097656 15.171875 -16.484375 C 15.171875 -17.867188 14.742188 -19 13.890625 -19.875 C 13.035156 -20.75 11.894531 -21.1875 10.46875 -21.1875 L 5.015625 -21.1875 Z M 17.59375 -16.421875 C 17.59375 -14.367188 16.867188 -12.660156 15.421875 -11.296875 C 13.984375 -9.960938 12.21875 -9.296875 10.125 -9.296875 L 5.015625 -9.296875 L 5.015625 0 L 2.59375 0 L 2.59375 -23.5 L 10.125 -23.5 C 12.195312 -23.5 13.960938 -22.84375 15.421875 -21.53125 C 16.867188 -20.195312 17.59375 -18.492188 17.59375 -16.421875 Z M 17.59375 -16.421875 "/></g></g></g><g fill="#000000" fill-opacity="1"><g transform="translate(87.958758, 341.968606)"><g><path d="M 16.5625 0 L 2.59375 0 L 2.59375 -23.5 L 16.5625 -23.5 L 16.5625 -21.25 L 5.015625 -21.25 L 5.015625 -12.890625 L 16.203125 -12.890625 L 16.203125 -10.609375 L 5.015625 -10.609375 L 5.015625 -2.25 L 16.5625 -2.25 Z M 16.5625 0 "/></g></g></g><g fill="#000000" fill-opacity="1"><g transform="translate(117.089111, 341.968606)"><g><path d="M 5.015625 -17.3125 L 5.015625 0 L 2.59375 0 L 2.59375 -24.984375 L 15.796875 -6.21875 L 15.796875 -23.5 L 18.21875 -23.5 L 18.21875 1.453125 Z M 5.015625 -17.3125 "/></g></g></g><g fill="#000000" fill-opacity="1"><g transform="translate(147.877597, 341.968606)"><g><path d="M 20.84375 -11.75 C 20.84375 -10.039062 20.53125 -8.472656 19.90625 -7.046875 C 19.257812 -5.597656 18.394531 -4.351562 17.3125 -3.3125 C 16.226562 -2.28125 14.953125 -1.476562 13.484375 -0.90625 C 12.003906 -0.300781 10.425781 0 8.75 0 L 2.59375 0 L 2.59375 -23.5 L 8.75 -23.5 C 10.425781 -23.5 12.003906 -23.210938 13.484375 -22.640625 C 14.953125 -22.035156 16.226562 -21.21875 17.3125 -20.1875 C 18.394531 -19.144531 19.257812 -17.910156 19.90625 -16.484375 C 20.53125 -15.035156 20.84375 -13.457031 20.84375 -11.75 Z M 18.484375 -11.75 C 18.484375 -14.425781 17.539062 -16.660156 15.65625 -18.453125 C 13.8125 -20.203125 11.53125 -21.078125 8.8125 -21.078125 L 5.015625 -21.078125 L 5.015625 -2.421875 L 8.8125 -2.421875 C 11.53125 -2.421875 13.8125 -3.296875 15.65625 -5.046875 C 17.539062 -6.835938 18.484375 -9.070312 18.484375 -11.75 Z M 18.484375 -11.75 "/></g></g></g><g fill="#000000" fill-opacity="1"><g transform="translate(180.255089, 341.968606)"><g><path d="M 21.25 1.90625 L 13.546875 -18.5625 L 5.84375 1.90625 L 0.34375 -23.5 L 2.828125 -23.5 L 6.46875 -6.421875 L 13.546875 -24.890625 L 20.59375 -6.421875 L 24.265625 -23.5 L 26.71875 -23.5 Z M 21.25 1.90625 "/></g></g></g><g fill="#000000" fill-opacity="1"><g transform="translate(217.296056, 341.968606)"><g><path d="M 5.015625 0 L 2.59375 0 L 2.59375 -23.5 L 5.015625 -23.5 Z M 5.015625 0 "/></g></g></g><g fill="#000000" fill-opacity="1"><g transform="translate(234.888653, 341.968606)"><g><path d="M 9.125 -11.09375 C 4.332031 -12.195312 1.9375 -14.25 1.9375 -17.25 C 1.9375 -19.457031 2.707031 -21.113281 4.25 -22.21875 C 5.789062 -23.300781 7.597656 -23.84375 9.671875 -23.84375 C 14.265625 -23.84375 16.984375 -22.140625 17.828125 -18.734375 L 15.203125 -18.734375 C 14.742188 -20.765625 12.898438 -21.78125 9.671875 -21.78125 C 7.421875 -21.78125 5.84375 -21.109375 4.9375 -19.765625 C 4.59375 -19.265625 4.421875 -18.632812 4.421875 -17.875 C 4.421875 -16.414062 5.207031 -15.296875 6.78125 -14.515625 C 7.507812 -14.117188 9.070312 -13.613281 11.46875 -13 C 13.863281 -12.375 15.601562 -11.679688 16.6875 -10.921875 C 18.1875 -9.859375 18.9375 -8.375 18.9375 -6.46875 C 18.9375 -4.09375 18.003906 -2.296875 16.140625 -1.078125 C 14.578125 -0.0546875 12.640625 0.453125 10.328125 0.453125 C 5.117188 0.453125 2.101562 -1.53125 1.28125 -5.5 L 4.140625 -5.5 C 4.578125 -3.007812 6.640625 -1.765625 10.328125 -1.765625 C 12.960938 -1.765625 14.796875 -2.488281 15.828125 -3.9375 C 16.242188 -4.507812 16.453125 -5.296875 16.453125 -6.296875 C 16.453125 -7.253906 16.070312 -8.046875 15.3125 -8.671875 C 14.226562 -9.546875 12.164062 -10.351562 9.125 -11.09375 Z M 9.125 -11.09375 "/></g></g></g><g fill="#000000" fill-opacity="1"><g transform="translate(264.70988, 341.968606)"><g><path d="M 16.5625 0 L 2.59375 0 L 2.59375 -23.5 L 16.5625 -23.5 L 16.5625 -21.25 L 5.015625 -21.25 L 5.015625 -12.890625 L 16.203125 -12.890625 L 16.203125 -10.609375 L 5.015625 -10.609375 L 5.015625 -2.25 L 16.5625 -2.25 Z M 16.5625 0 "/></g></g></g></svg>