<svg xmlns="http://www.w3.org/2000/svg" xmlns:xlink="http://www.w3.org/1999/xlink" width="500" zoomAndPan="magnify" viewBox="0 0 375 374.999991" height="500" preserveAspectRatio="xMidYMid meet" version="1.0"><defs><g/></defs><g fill="#ffffff" fill-opacity="1"><g transform="translate(113.815727, 240.021094)"><g><path d="M 0 -140.484375 L 53.390625 -140.484375 L 53.390625 -138.171875 C 46.960938 -138.171875 42.625 -137.59375 40.375 -136.4375 C 38.125 -135.28125 38.023438 -132.519531 40.078125 -128.15625 L 89.234375 -26.59375 L 106 -74.578125 L 80.75 -126.609375 C 78.695312 -131.109375 76.609375 -134.128906 74.484375 -135.671875 C 72.367188 -137.210938 68.675781 -137.984375 63.40625 -137.984375 L 63.40625 -140.484375 L 144.53125 -140.484375 L 144.53125 -137.984375 C 139.132812 -137.984375 135.25 -137.210938 132.875 -135.671875 C 130.5 -134.128906 128.476562 -131.046875 126.8125 -126.421875 L 117.359375 -99.640625 L 152.640625 -26.59375 L 187.703125 -126.609375 C 189.117188 -130.722656 189.117188 -133.644531 187.703125 -135.375 C 186.296875 -137.113281 182.570312 -137.984375 176.53125 -137.984375 L 176.53125 -140.484375 L 208.140625 -140.484375 L 208.140625 -137.984375 C 202.609375 -137.984375 198.65625 -137.210938 196.28125 -135.671875 C 193.90625 -134.128906 191.882812 -131.046875 190.21875 -126.421875 L 146.078125 0 L 142.03125 0 L 107.53125 -71.3125 L 82.484375 0 L 78.4375 0 L 17.34375 -126.609375 C 15.925781 -129.691406 14.539062 -132.035156 13.1875 -133.640625 C 11.84375 -135.253906 10.175781 -136.378906 8.1875 -137.015625 C 6.195312 -137.660156 3.46875 -137.984375 0 -137.984375 Z M 115.828125 -102.71875 L 124.296875 -126.609375 C 125.710938 -130.722656 125.710938 -133.644531 124.296875 -135.375 C 122.890625 -137.113281 119.164062 -137.984375 113.125 -137.984375 C 108.113281 -137.859375 104.804688 -137.148438 103.203125 -135.859375 C 101.597656 -134.578125 101.757812 -132.007812 103.6875 -128.15625 Z M 115.828125 -102.71875 "/></g></g></g><path stroke-linecap="butt" transform="matrix(1.220487, 0, 0, 1.220487, 79.530863, 48.974704)" fill="none" stroke-linejoin="miter" d="M 36.861249 154.99859 L 36.861249 106.285958 L 38.960821 106.285958 C 38.960821 117.119878 40.5323 125.972647 43.678457 132.844264 C 46.821414 139.712681 51.08777 144.772778 56.480726 148.024554 C 61.896086 151.27313 67.906751 152.899018 74.512721 152.899018 C 78.635052 152.899018 82.40212 152.278108 85.810724 151.036288 C 89.219328 149.794468 91.93981 147.733303 93.975371 144.852792 C 96.036536 141.972282 97.067118 138.154005 97.067118 133.397962 C 97.067118 128.853157 95.626863 124.69242 92.746353 120.91255 C 89.894647 117.107075 86.165987 113.474432 81.569972 110.011418 C 76.970757 106.551605 72.121898 103.117396 67.023394 99.708792 C 61.950495 96.300188 57.114438 92.75716 52.515223 89.08611 C 47.919209 85.411859 44.177746 81.407949 41.300436 77.074381 C 38.44553 72.740813 37.018077 67.971968 37.018077 62.767846 C 37.018077 56.504336 38.723979 51.325818 42.132583 47.229092 C 45.541187 43.106762 49.833148 40.015014 55.011666 37.953848 C 60.218988 35.892683 65.47752 34.862101 70.787261 34.862101 C 74.909592 34.862101 78.39821 35.271773 81.253116 36.091118 C 84.133626 36.884859 86.591662 37.84823 88.624022 38.984431 C 90.685187 40.120632 92.547918 41.100006 94.212212 41.919351 C 95.905313 42.735496 97.569607 43.145168 99.208298 43.145168 C 101.375082 43.145168 102.828139 42.658682 103.56747 41.679309 C 104.332406 40.703136 104.716474 39.022838 104.716474 36.644816 L 106.819247 36.644816 L 106.819247 74.974809 L 104.716474 74.974809 C 104.716474 67.706321 103.330628 61.353195 100.555737 55.90903 C 97.806449 50.439261 94.055385 46.185707 89.299342 43.145168 C 84.543299 40.10783 79.124739 38.587561 73.046862 38.587561 C 66.54651 38.587561 61.883283 40.133435 59.057183 43.225183 C 56.256686 46.31693 54.854838 50.240826 54.854838 54.996869 C 54.854838 60.30981 56.256686 64.998641 59.057183 69.069763 C 61.883283 73.112079 65.515927 76.78313 69.955114 80.086115 C 74.3943 83.3891 79.099134 86.615272 84.066415 89.758229 C 89.059299 92.875581 93.776935 96.194569 98.216122 99.708792 C 102.655309 103.223015 106.27515 107.14691 109.075646 111.480478 C 111.904948 115.814046 113.319599 120.899748 113.319599 126.740783 C 113.319599 132.261761 112.209002 137.296253 109.987808 141.841059 C 107.769815 146.385864 104.057157 150.044112 98.849834 152.819004 C 93.671317 155.568291 86.482843 156.941335 77.287613 156.941335 C 72.848427 156.941335 69.110164 156.560467 66.072826 155.792331 C 63.032287 155.053 60.404621 154.166443 58.183428 153.13586 C 55.965435 152.105278 53.929874 151.221921 52.079946 150.48259 C 50.255623 149.714454 48.367288 149.333586 46.411742 149.333586 C 41.444461 149.333586 38.960821 151.221921 38.960821 154.99859 Z M 36.861249 154.99859 " stroke="#000000" stroke-width="16.641142" stroke-opacity="1" stroke-miterlimit="4"/><g fill="#ffffff" fill-opacity="1"><g transform="translate(114.600789, 238.150158)"><g><path d="M 9.90625 0 L 9.90625 -59.4375 L 12.484375 -59.4375 C 12.484375 -46.226562 14.394531 -35.429688 18.21875 -27.046875 C 22.050781 -18.660156 27.269531 -12.484375 33.875 -8.515625 C 40.488281 -4.554688 47.820312 -2.578125 55.875 -2.578125 C 60.894531 -2.578125 65.484375 -3.335938 69.640625 -4.859375 C 73.804688 -6.378906 77.144531 -8.890625 79.65625 -12.390625 C 82.164062 -15.890625 83.421875 -20.546875 83.421875 -26.359375 C 83.421875 -31.898438 81.671875 -36.984375 78.171875 -41.609375 C 74.671875 -46.234375 70.113281 -50.65625 64.5 -54.875 C 58.882812 -59.101562 52.972656 -63.296875 46.765625 -67.453125 C 40.554688 -71.617188 34.644531 -75.945312 29.03125 -80.4375 C 23.414062 -84.9375 18.859375 -89.828125 15.359375 -95.109375 C 11.859375 -100.390625 10.109375 -106.203125 10.109375 -112.546875 C 10.109375 -120.203125 12.1875 -126.539062 16.34375 -131.5625 C 20.507812 -136.582031 25.757812 -140.347656 32.09375 -142.859375 C 38.4375 -145.367188 44.84375 -146.625 51.3125 -146.625 C 56.332031 -146.625 60.59375 -146.128906 64.09375 -145.140625 C 67.59375 -144.148438 70.597656 -142.957031 73.109375 -141.5625 C 75.617188 -140.175781 77.894531 -138.988281 79.9375 -138 C 81.988281 -137.007812 84.007812 -136.515625 86 -136.515625 C 88.632812 -136.515625 90.414062 -137.109375 91.34375 -138.296875 C 92.269531 -139.484375 92.734375 -141.53125 92.734375 -144.4375 L 95.3125 -144.4375 L 95.3125 -97.6875 L 92.734375 -97.6875 C 92.734375 -106.53125 91.046875 -114.285156 87.671875 -120.953125 C 84.304688 -127.628906 79.71875 -132.816406 73.90625 -136.515625 C 68.09375 -140.210938 61.488281 -142.0625 54.09375 -142.0625 C 46.164062 -142.0625 40.484375 -140.175781 37.046875 -136.40625 C 33.617188 -132.644531 31.90625 -127.859375 31.90625 -122.046875 C 31.90625 -115.578125 33.617188 -109.863281 37.046875 -104.90625 C 40.484375 -99.957031 44.910156 -95.46875 50.328125 -91.4375 C 55.742188 -87.414062 61.488281 -83.488281 67.5625 -79.65625 C 73.644531 -75.820312 79.390625 -71.757812 84.796875 -67.46875 C 90.210938 -63.175781 94.640625 -58.382812 98.078125 -53.09375 C 101.515625 -47.8125 103.234375 -41.601562 103.234375 -34.46875 C 103.234375 -27.738281 101.878906 -21.597656 99.171875 -16.046875 C 96.460938 -10.503906 91.9375 -6.046875 85.59375 -2.671875 C 79.257812 0.691406 70.476562 2.375 59.25 2.375 C 53.832031 2.375 49.273438 1.910156 45.578125 0.984375 C 41.878906 0.0664062 38.675781 -1.015625 35.96875 -2.265625 C 33.257812 -3.523438 30.78125 -4.617188 28.53125 -5.546875 C 26.28125 -6.472656 23.96875 -6.9375 21.59375 -6.9375 C 15.519531 -6.9375 12.484375 -4.625 12.484375 0 Z M 9.90625 0 "/></g></g></g><g fill="#ffffff" fill-opacity="1"><g transform="translate(122.787076, 278.170382)"><g><path d="M 4.65625 -5.65625 C 2.207031 -6.21875 0.984375 -7.257812 0.984375 -8.78125 C 0.984375 -9.914062 1.378906 -10.765625 2.171875 -11.328125 C 2.953125 -11.878906 3.875 -12.15625 4.9375 -12.15625 C 7.269531 -12.15625 8.65625 -11.285156 9.09375 -9.546875 L 7.75 -9.546875 C 7.507812 -10.578125 6.570312 -11.09375 4.9375 -11.09375 C 3.78125 -11.09375 2.972656 -10.753906 2.515625 -10.078125 C 2.335938 -9.816406 2.25 -9.492188 2.25 -9.109375 C 2.25 -8.367188 2.648438 -7.796875 3.453125 -7.390625 C 3.828125 -7.191406 4.625 -6.9375 5.84375 -6.625 C 7.0625 -6.300781 7.945312 -5.945312 8.5 -5.5625 C 9.269531 -5.019531 9.65625 -4.265625 9.65625 -3.296875 C 9.65625 -2.085938 9.175781 -1.171875 8.21875 -0.546875 C 7.425781 -0.0234375 6.441406 0.234375 5.265625 0.234375 C 2.609375 0.234375 1.070312 -0.773438 0.65625 -2.796875 L 2.109375 -2.796875 C 2.335938 -1.523438 3.390625 -0.890625 5.265625 -0.890625 C 6.597656 -0.890625 7.53125 -1.257812 8.0625 -2 C 8.269531 -2.300781 8.375 -2.703125 8.375 -3.203125 C 8.375 -3.691406 8.179688 -4.097656 7.796875 -4.421875 C 7.242188 -4.867188 6.195312 -5.28125 4.65625 -5.65625 Z M 4.65625 -5.65625 "/></g></g></g><g fill="#ffffff" fill-opacity="1"><g transform="translate(137.981642, 278.170382)"><g><path d="M 2.546875 -5.9375 L 5.328125 -5.9375 C 6.023438 -5.9375 6.597656 -6.171875 7.046875 -6.640625 C 7.503906 -7.109375 7.734375 -7.695312 7.734375 -8.40625 C 7.734375 -9.101562 7.515625 -9.675781 7.078125 -10.125 C 6.640625 -10.570312 6.054688 -10.796875 5.328125 -10.796875 L 2.546875 -10.796875 Z M 8.96875 -8.359375 C 8.96875 -7.316406 8.597656 -6.453125 7.859375 -5.765625 C 7.128906 -5.078125 6.226562 -4.734375 5.15625 -4.734375 L 2.546875 -4.734375 L 2.546875 0 L 1.328125 0 L 1.328125 -11.96875 L 5.15625 -11.96875 C 6.21875 -11.96875 7.117188 -11.632812 7.859375 -10.96875 C 8.597656 -10.289062 8.96875 -9.421875 8.96875 -8.359375 Z M 8.96875 -8.359375 "/></g></g></g><g fill="#ffffff" fill-opacity="1"><g transform="translate(152.384161, 278.170382)"><g><path d="M 8.4375 0 L 1.328125 0 L 1.328125 -11.96875 L 8.4375 -11.96875 L 8.4375 -10.828125 L 2.546875 -10.828125 L 2.546875 -6.5625 L 8.265625 -6.5625 L 8.265625 -5.40625 L 2.546875 -5.40625 L 2.546875 -1.140625 L 8.4375 -1.140625 Z M 8.4375 0 "/></g></g></g><g fill="#ffffff" fill-opacity="1"><g transform="translate(167.226709, 278.170382)"><g><path d="M 2.546875 -8.828125 L 2.546875 0 L 1.328125 0 L 1.328125 -12.734375 L 8.046875 -3.171875 L 8.046875 -11.96875 L 9.28125 -11.96875 L 9.28125 0.734375 Z M 2.546875 -8.828125 "/></g></g></g><g fill="#ffffff" fill-opacity="1"><g transform="translate(182.914111, 278.170382)"><g><path d="M 10.625 -5.984375 C 10.625 -5.117188 10.460938 -4.320312 10.140625 -3.59375 C 9.816406 -2.851562 9.378906 -2.21875 8.828125 -1.6875 C 8.273438 -1.15625 7.625 -0.742188 6.875 -0.453125 C 6.113281 -0.148438 5.304688 0 4.453125 0 L 1.328125 0 L 1.328125 -11.96875 L 4.453125 -11.96875 C 5.304688 -11.96875 6.113281 -11.820312 6.875 -11.53125 C 7.625 -11.226562 8.273438 -10.8125 8.828125 -10.28125 C 9.378906 -9.75 9.816406 -9.125 10.140625 -8.40625 C 10.460938 -7.664062 10.625 -6.859375 10.625 -5.984375 Z M 9.421875 -5.984375 C 9.421875 -7.347656 8.941406 -8.488281 7.984375 -9.40625 C 7.035156 -10.289062 5.867188 -10.734375 4.484375 -10.734375 L 2.546875 -10.734375 L 2.546875 -1.234375 L 4.484375 -1.234375 C 5.867188 -1.234375 7.035156 -1.679688 7.984375 -2.578125 C 8.941406 -3.484375 9.421875 -4.617188 9.421875 -5.984375 Z M 9.421875 -5.984375 "/></g></g></g><g fill="#ffffff" fill-opacity="1"><g transform="translate(199.411146, 278.170382)"><g><path d="M 10.828125 0.96875 L 6.90625 -9.453125 L 2.96875 0.96875 L 0.171875 -11.96875 L 1.4375 -11.96875 L 3.296875 -3.28125 L 6.90625 -12.671875 L 10.5 -3.28125 L 12.359375 -11.96875 L 13.609375 -11.96875 Z M 10.828125 0.96875 "/></g></g></g><g fill="#ffffff" fill-opacity="1"><g transform="translate(218.284324, 278.170382)"><g><path d="M 2.546875 0 L 1.328125 0 L 1.328125 -11.96875 L 2.546875 -11.96875 Z M 2.546875 0 "/></g></g></g><g fill="#ffffff" fill-opacity="1"><g transform="translate(227.248134, 278.170382)"><g><path d="M 4.65625 -5.65625 C 2.207031 -6.21875 0.984375 -7.257812 0.984375 -8.78125 C 0.984375 -9.914062 1.378906 -10.765625 2.171875 -11.328125 C 2.953125 -11.878906 3.875 -12.15625 4.9375 -12.15625 C 7.269531 -12.15625 8.65625 -11.285156 9.09375 -9.546875 L 7.75 -9.546875 C 7.507812 -10.578125 6.570312 -11.09375 4.9375 -11.09375 C 3.78125 -11.09375 2.972656 -10.753906 2.515625 -10.078125 C 2.335938 -9.816406 2.25 -9.492188 2.25 -9.109375 C 2.25 -8.367188 2.648438 -7.796875 3.453125 -7.390625 C 3.828125 -7.191406 4.625 -6.9375 5.84375 -6.625 C 7.0625 -6.300781 7.945312 -5.945312 8.5 -5.5625 C 9.269531 -5.019531 9.65625 -4.265625 9.65625 -3.296875 C 9.65625 -2.085938 9.175781 -1.171875 8.21875 -0.546875 C 7.425781 -0.0234375 6.441406 0.234375 5.265625 0.234375 C 2.609375 0.234375 1.070312 -0.773438 0.65625 -2.796875 L 2.109375 -2.796875 C 2.335938 -1.523438 3.390625 -0.890625 5.265625 -0.890625 C 6.597656 -0.890625 7.53125 -1.257812 8.0625 -2 C 8.269531 -2.300781 8.375 -2.703125 8.375 -3.203125 C 8.375 -3.691406 8.179688 -4.097656 7.796875 -4.421875 C 7.242188 -4.867188 6.195312 -5.28125 4.65625 -5.65625 Z M 4.65625 -5.65625 "/></g></g></g><g fill="#ffffff" fill-opacity="1"><g transform="translate(242.442697, 278.170382)"><g><path d="M 8.4375 0 L 1.328125 0 L 1.328125 -11.96875 L 8.4375 -11.96875 L 8.4375 -10.828125 L 2.546875 -10.828125 L 2.546875 -6.5625 L 8.265625 -6.5625 L 8.265625 -5.40625 L 2.546875 -5.40625 L 2.546875 -1.140625 L 8.4375 -1.140625 Z M 8.4375 0 "/></g></g></g></svg>